<svg width="647" height="99" viewBox="0 0 647 99" fill="none" xmlns="http://www.w3.org/2000/svg">
<mask id="path-1-outside-1_2459_6" maskUnits="userSpaceOnUse" x="-0.8125" y="-0.75" width="648" height="100" fill="black">
<rect fill="white" x="-0.8125" y="-0.75" width="648" height="100"/>
<path d="M2 49.5C2 34.5417 6.16667 22.8958 14.5 14.5625C22.8333 6.22917 34.4375 2.0625 49.3125 2.0625C64.5625 2.0625 76.3125 6.16667 84.5625 14.375C92.8125 22.5417 96.9375 34 96.9375 48.75C96.9375 59.4583 95.125 68.25 91.5 75.125C87.9167 81.9583 82.7083 87.2917 75.875 91.125C69.0833 94.9167 60.6042 96.8125 50.4375 96.8125C40.1042 96.8125 31.5417 95.1667 24.75 91.875C18 88.5833 12.5208 83.375 8.3125 76.25C4.10417 69.125 2 60.2083 2 49.5ZM30.3125 49.625C30.3125 58.875 32.0208 65.5208 35.4375 69.5625C38.8958 73.6042 43.5833 75.625 49.5 75.625C55.5833 75.625 60.2917 73.6458 63.625 69.6875C66.9583 65.7292 68.625 58.625 68.625 48.375C68.625 39.75 66.875 33.4583 63.375 29.5C59.9167 25.5 55.2083 23.5 49.25 23.5C43.5417 23.5 38.9583 25.5208 35.5 29.5625C32.0417 33.6042 30.3125 40.2917 30.3125 49.625ZM91.92 76.875L117.17 74.5C118.212 77.5 119.67 79.6458 121.545 80.9375C123.42 82.2292 125.92 82.875 129.045 82.875C132.462 82.875 135.107 82.1458 136.982 80.6875C138.441 79.6042 139.17 78.25 139.17 76.625C139.17 74.7917 138.212 73.375 136.295 72.375C134.92 71.6667 131.274 70.7917 125.357 69.75C116.524 68.2083 110.378 66.7917 106.92 65.5C103.503 64.1667 100.607 61.9375 98.2325 58.8125C95.8992 55.6875 94.7325 52.125 94.7325 48.125C94.7325 43.75 96.0033 39.9792 98.545 36.8125C101.087 33.6458 104.587 31.2917 109.045 29.75C113.503 28.1667 119.482 27.375 126.982 27.375C134.899 27.375 140.732 27.9792 144.482 29.1875C148.274 30.3958 151.42 32.2708 153.92 34.8125C156.462 37.3542 158.566 40.7917 160.232 45.125L136.107 47.5C135.482 45.375 134.441 43.8125 132.982 42.8125C130.982 41.4792 128.566 40.8125 125.732 40.8125C122.857 40.8125 120.753 41.3333 119.42 42.375C118.128 43.375 117.482 44.6042 117.482 46.0625C117.482 47.6875 118.316 48.9167 119.982 49.75C121.649 50.5833 125.274 51.3333 130.857 52C139.316 52.9583 145.607 54.2917 149.732 56C153.857 57.7083 157.003 60.1458 159.17 63.3125C161.378 66.4792 162.482 69.9583 162.482 73.75C162.482 77.5833 161.316 81.3125 158.982 84.9375C156.691 88.5625 153.045 91.4583 148.045 93.625C143.087 95.75 136.316 96.8125 127.732 96.8125C115.607 96.8125 106.962 95.0833 101.795 91.625C96.67 88.1667 93.3783 83.25 91.92 76.875ZM160.777 28.875H184.527V38.5625C187.944 34.5208 191.382 31.6458 194.84 29.9375C198.34 28.2292 202.548 27.375 207.465 27.375C212.757 27.375 216.944 28.3125 220.027 30.1875C223.111 32.0625 225.632 34.8542 227.59 38.5625C231.59 34.2292 235.236 31.2917 238.527 29.75C241.819 28.1667 245.882 27.375 250.715 27.375C257.84 27.375 263.402 29.5 267.402 33.75C271.402 37.9583 273.402 44.5625 273.402 53.5625V95.25H247.902V57.4375C247.902 54.4375 247.319 52.2083 246.152 50.75C244.444 48.4583 242.319 47.3125 239.777 47.3125C236.777 47.3125 234.361 48.3958 232.527 50.5625C230.694 52.7292 229.777 56.2083 229.777 61V95.25H204.277V58.6875C204.277 55.7708 204.111 53.7917 203.777 52.75C203.236 51.0833 202.298 49.75 200.965 48.75C199.632 47.7083 198.069 47.1875 196.277 47.1875C193.361 47.1875 190.965 48.2917 189.09 50.5C187.215 52.7083 186.277 56.3333 186.277 61.375V95.25H160.777V28.875ZM275.448 3.625H300.885V20.9375H275.448V3.625ZM275.448 28.875H300.885V95.25H275.448V28.875ZM372.992 95.25H349.242V84.5C345.701 88.9167 342.117 92.0625 338.492 93.9375C334.909 95.8125 330.492 96.75 325.242 96.75C318.242 96.75 312.742 94.6667 308.742 90.5C304.784 86.2917 302.805 79.8333 302.805 71.125V28.875H328.367V65.375C328.367 69.5417 329.138 72.5 330.68 74.25C332.222 76 334.388 76.875 337.18 76.875C340.222 76.875 342.701 75.7083 344.617 73.375C346.576 71.0417 347.555 66.8542 347.555 60.8125V28.875H372.992V95.25ZM374.538 28.875H398.288V38.5625C401.704 34.5208 405.142 31.6458 408.6 29.9375C412.1 28.2292 416.308 27.375 421.225 27.375C426.517 27.375 430.704 28.3125 433.788 30.1875C436.871 32.0625 439.392 34.8542 441.35 38.5625C445.35 34.2292 448.996 31.2917 452.288 29.75C455.579 28.1667 459.642 27.375 464.475 27.375C471.6 27.375 477.163 29.5 481.163 33.75C485.163 37.9583 487.163 44.5625 487.163 53.5625V95.25H461.663V57.4375C461.663 54.4375 461.079 52.2083 459.913 50.75C458.204 48.4583 456.079 47.3125 453.538 47.3125C450.538 47.3125 448.121 48.3958 446.288 50.5625C444.454 52.7292 443.538 56.2083 443.538 61V95.25H418.038V58.6875C418.038 55.7708 417.871 53.7917 417.538 52.75C416.996 51.0833 416.058 49.75 414.725 48.75C413.392 47.7083 411.829 47.1875 410.038 47.1875C407.121 47.1875 404.725 48.2917 402.85 50.5C400.975 52.7083 400.038 56.3333 400.038 61.375V95.25H374.538V28.875ZM486.77 50.625C486.77 35.4167 490.853 23.5208 499.02 14.9375C507.187 6.3125 517.728 2 530.645 2C539.103 2 546.728 4.02083 553.52 8.0625C560.312 12.1042 565.478 17.75 569.02 25C572.603 32.2083 574.395 40.3958 574.395 49.5625C574.395 58.8542 572.52 67.1667 568.77 74.5C565.02 81.8333 559.707 87.3958 552.832 91.1875C545.957 94.9375 538.541 96.8125 530.582 96.8125C521.957 96.8125 514.249 94.7292 507.457 90.5625C500.666 86.3958 495.52 80.7083 492.02 73.5C488.52 66.2917 486.77 58.6667 486.77 50.625ZM499.27 50.8125C499.27 61.8542 502.228 70.5625 508.145 76.9375C514.103 83.2708 521.562 86.4375 530.52 86.4375C539.645 86.4375 547.145 83.2292 553.02 76.8125C558.937 70.3958 561.895 61.2917 561.895 49.5C561.895 42.0417 560.624 35.5417 558.082 30C555.582 24.4167 551.895 20.1042 547.02 17.0625C542.187 13.9792 536.749 12.4375 530.707 12.4375C522.124 12.4375 514.728 15.3958 508.52 21.3125C502.353 27.1875 499.27 37.0208 499.27 50.8125ZM571.878 65.8125L583.315 64.8125C583.857 69.3958 585.107 73.1667 587.065 76.125C589.065 79.0417 592.148 81.4167 596.315 83.25C600.482 85.0417 605.169 85.9375 610.378 85.9375C615.003 85.9375 619.086 85.25 622.628 83.875C626.169 82.5 628.794 80.625 630.503 78.25C632.253 75.8333 633.128 73.2083 633.128 70.375C633.128 67.5 632.294 65 630.628 62.875C628.961 60.7083 626.211 58.8958 622.378 57.4375C619.919 56.4792 614.482 55 606.065 53C597.648 50.9583 591.753 49.0417 588.378 47.25C584.003 44.9583 580.732 42.125 578.565 38.75C576.44 35.3333 575.378 31.5208 575.378 27.3125C575.378 22.6875 576.69 18.375 579.315 14.375C581.94 10.3333 585.773 7.27083 590.815 5.1875C595.857 3.10417 601.461 2.0625 607.628 2.0625C614.419 2.0625 620.398 3.16667 625.565 5.375C630.773 7.54167 634.773 10.75 637.565 15C640.357 19.25 641.857 24.0625 642.065 29.4375L630.44 30.3125C629.815 24.5208 627.69 20.1458 624.065 17.1875C620.482 14.2292 615.169 12.75 608.128 12.75C600.794 12.75 595.44 14.1042 592.065 16.8125C588.732 19.4792 587.065 22.7083 587.065 26.5C587.065 29.7917 588.253 32.5 590.628 34.625C592.961 36.75 599.044 38.9375 608.878 41.1875C618.753 43.3958 625.523 45.3333 629.19 47C634.523 49.4583 638.461 52.5833 641.003 56.375C643.544 60.125 644.815 64.4583 644.815 69.375C644.815 74.25 643.419 78.8542 640.628 83.1875C637.836 87.4792 633.815 90.8333 628.565 93.25C623.357 95.625 617.482 96.8125 610.94 96.8125C602.648 96.8125 595.69 95.6042 590.065 93.1875C584.482 90.7708 580.086 87.1458 576.878 82.3125C573.711 77.4375 572.044 71.9375 571.878 65.8125Z"/>
</mask>
<path d="M2 49.5C2 34.5417 6.16667 22.8958 14.5 14.5625C22.8333 6.22917 34.4375 2.0625 49.3125 2.0625C64.5625 2.0625 76.3125 6.16667 84.5625 14.375C92.8125 22.5417 96.9375 34 96.9375 48.75C96.9375 59.4583 95.125 68.25 91.5 75.125C87.9167 81.9583 82.7083 87.2917 75.875 91.125C69.0833 94.9167 60.6042 96.8125 50.4375 96.8125C40.1042 96.8125 31.5417 95.1667 24.75 91.875C18 88.5833 12.5208 83.375 8.3125 76.25C4.10417 69.125 2 60.2083 2 49.5ZM30.3125 49.625C30.3125 58.875 32.0208 65.5208 35.4375 69.5625C38.8958 73.6042 43.5833 75.625 49.5 75.625C55.5833 75.625 60.2917 73.6458 63.625 69.6875C66.9583 65.7292 68.625 58.625 68.625 48.375C68.625 39.75 66.875 33.4583 63.375 29.5C59.9167 25.5 55.2083 23.5 49.25 23.5C43.5417 23.5 38.9583 25.5208 35.5 29.5625C32.0417 33.6042 30.3125 40.2917 30.3125 49.625ZM91.92 76.875L117.17 74.5C118.212 77.5 119.67 79.6458 121.545 80.9375C123.42 82.2292 125.92 82.875 129.045 82.875C132.462 82.875 135.107 82.1458 136.982 80.6875C138.441 79.6042 139.17 78.25 139.17 76.625C139.17 74.7917 138.212 73.375 136.295 72.375C134.92 71.6667 131.274 70.7917 125.357 69.75C116.524 68.2083 110.378 66.7917 106.92 65.5C103.503 64.1667 100.607 61.9375 98.2325 58.8125C95.8992 55.6875 94.7325 52.125 94.7325 48.125C94.7325 43.75 96.0033 39.9792 98.545 36.8125C101.087 33.6458 104.587 31.2917 109.045 29.75C113.503 28.1667 119.482 27.375 126.982 27.375C134.899 27.375 140.732 27.9792 144.482 29.1875C148.274 30.3958 151.42 32.2708 153.92 34.8125C156.462 37.3542 158.566 40.7917 160.232 45.125L136.107 47.5C135.482 45.375 134.441 43.8125 132.982 42.8125C130.982 41.4792 128.566 40.8125 125.732 40.8125C122.857 40.8125 120.753 41.3333 119.42 42.375C118.128 43.375 117.482 44.6042 117.482 46.0625C117.482 47.6875 118.316 48.9167 119.982 49.75C121.649 50.5833 125.274 51.3333 130.857 52C139.316 52.9583 145.607 54.2917 149.732 56C153.857 57.7083 157.003 60.1458 159.17 63.3125C161.378 66.4792 162.482 69.9583 162.482 73.75C162.482 77.5833 161.316 81.3125 158.982 84.9375C156.691 88.5625 153.045 91.4583 148.045 93.625C143.087 95.75 136.316 96.8125 127.732 96.8125C115.607 96.8125 106.962 95.0833 101.795 91.625C96.67 88.1667 93.3783 83.25 91.92 76.875ZM160.777 28.875H184.527V38.5625C187.944 34.5208 191.382 31.6458 194.84 29.9375C198.34 28.2292 202.548 27.375 207.465 27.375C212.757 27.375 216.944 28.3125 220.027 30.1875C223.111 32.0625 225.632 34.8542 227.59 38.5625C231.59 34.2292 235.236 31.2917 238.527 29.75C241.819 28.1667 245.882 27.375 250.715 27.375C257.84 27.375 263.402 29.5 267.402 33.75C271.402 37.9583 273.402 44.5625 273.402 53.5625V95.25H247.902V57.4375C247.902 54.4375 247.319 52.2083 246.152 50.75C244.444 48.4583 242.319 47.3125 239.777 47.3125C236.777 47.3125 234.361 48.3958 232.527 50.5625C230.694 52.7292 229.777 56.2083 229.777 61V95.25H204.277V58.6875C204.277 55.7708 204.111 53.7917 203.777 52.75C203.236 51.0833 202.298 49.75 200.965 48.75C199.632 47.7083 198.069 47.1875 196.277 47.1875C193.361 47.1875 190.965 48.2917 189.09 50.5C187.215 52.7083 186.277 56.3333 186.277 61.375V95.25H160.777V28.875ZM275.448 3.625H300.885V20.9375H275.448V3.625ZM275.448 28.875H300.885V95.25H275.448V28.875ZM372.992 95.25H349.242V84.5C345.701 88.9167 342.117 92.0625 338.492 93.9375C334.909 95.8125 330.492 96.75 325.242 96.75C318.242 96.75 312.742 94.6667 308.742 90.5C304.784 86.2917 302.805 79.8333 302.805 71.125V28.875H328.367V65.375C328.367 69.5417 329.138 72.5 330.68 74.25C332.222 76 334.388 76.875 337.18 76.875C340.222 76.875 342.701 75.7083 344.617 73.375C346.576 71.0417 347.555 66.8542 347.555 60.8125V28.875H372.992V95.25ZM374.538 28.875H398.288V38.5625C401.704 34.5208 405.142 31.6458 408.6 29.9375C412.1 28.2292 416.308 27.375 421.225 27.375C426.517 27.375 430.704 28.3125 433.788 30.1875C436.871 32.0625 439.392 34.8542 441.35 38.5625C445.35 34.2292 448.996 31.2917 452.288 29.75C455.579 28.1667 459.642 27.375 464.475 27.375C471.6 27.375 477.163 29.5 481.163 33.75C485.163 37.9583 487.163 44.5625 487.163 53.5625V95.25H461.663V57.4375C461.663 54.4375 461.079 52.2083 459.913 50.75C458.204 48.4583 456.079 47.3125 453.538 47.3125C450.538 47.3125 448.121 48.3958 446.288 50.5625C444.454 52.7292 443.538 56.2083 443.538 61V95.25H418.038V58.6875C418.038 55.7708 417.871 53.7917 417.538 52.75C416.996 51.0833 416.058 49.75 414.725 48.75C413.392 47.7083 411.829 47.1875 410.038 47.1875C407.121 47.1875 404.725 48.2917 402.85 50.5C400.975 52.7083 400.038 56.3333 400.038 61.375V95.25H374.538V28.875ZM486.77 50.625C486.77 35.4167 490.853 23.5208 499.02 14.9375C507.187 6.3125 517.728 2 530.645 2C539.103 2 546.728 4.02083 553.52 8.0625C560.312 12.1042 565.478 17.75 569.02 25C572.603 32.2083 574.395 40.3958 574.395 49.5625C574.395 58.8542 572.52 67.1667 568.77 74.5C565.02 81.8333 559.707 87.3958 552.832 91.1875C545.957 94.9375 538.541 96.8125 530.582 96.8125C521.957 96.8125 514.249 94.7292 507.457 90.5625C500.666 86.3958 495.52 80.7083 492.02 73.5C488.52 66.2917 486.77 58.6667 486.77 50.625ZM499.27 50.8125C499.27 61.8542 502.228 70.5625 508.145 76.9375C514.103 83.2708 521.562 86.4375 530.52 86.4375C539.645 86.4375 547.145 83.2292 553.02 76.8125C558.937 70.3958 561.895 61.2917 561.895 49.5C561.895 42.0417 560.624 35.5417 558.082 30C555.582 24.4167 551.895 20.1042 547.02 17.0625C542.187 13.9792 536.749 12.4375 530.707 12.4375C522.124 12.4375 514.728 15.3958 508.52 21.3125C502.353 27.1875 499.27 37.0208 499.27 50.8125ZM571.878 65.8125L583.315 64.8125C583.857 69.3958 585.107 73.1667 587.065 76.125C589.065 79.0417 592.148 81.4167 596.315 83.25C600.482 85.0417 605.169 85.9375 610.378 85.9375C615.003 85.9375 619.086 85.25 622.628 83.875C626.169 82.5 628.794 80.625 630.503 78.25C632.253 75.8333 633.128 73.2083 633.128 70.375C633.128 67.5 632.294 65 630.628 62.875C628.961 60.7083 626.211 58.8958 622.378 57.4375C619.919 56.4792 614.482 55 606.065 53C597.648 50.9583 591.753 49.0417 588.378 47.25C584.003 44.9583 580.732 42.125 578.565 38.75C576.44 35.3333 575.378 31.5208 575.378 27.3125C575.378 22.6875 576.69 18.375 579.315 14.375C581.94 10.3333 585.773 7.27083 590.815 5.1875C595.857 3.10417 601.461 2.0625 607.628 2.0625C614.419 2.0625 620.398 3.16667 625.565 5.375C630.773 7.54167 634.773 10.75 637.565 15C640.357 19.25 641.857 24.0625 642.065 29.4375L630.44 30.3125C629.815 24.5208 627.69 20.1458 624.065 17.1875C620.482 14.2292 615.169 12.75 608.128 12.75C600.794 12.75 595.44 14.1042 592.065 16.8125C588.732 19.4792 587.065 22.7083 587.065 26.5C587.065 29.7917 588.253 32.5 590.628 34.625C592.961 36.75 599.044 38.9375 608.878 41.1875C618.753 43.3958 625.523 45.3333 629.19 47C634.523 49.4583 638.461 52.5833 641.003 56.375C643.544 60.125 644.815 64.4583 644.815 69.375C644.815 74.25 643.419 78.8542 640.628 83.1875C637.836 87.4792 633.815 90.8333 628.565 93.25C623.357 95.625 617.482 96.8125 610.94 96.8125C602.648 96.8125 595.69 95.6042 590.065 93.1875C584.482 90.7708 580.086 87.1458 576.878 82.3125C573.711 77.4375 572.044 71.9375 571.878 65.8125Z" fill="white"/>
<path d="M84.5625 14.375L83.1519 15.7928L83.1555 15.7964L84.5625 14.375ZM91.5 75.125L89.7309 74.1922L89.7288 74.1962L91.5 75.125ZM75.875 91.125L76.8499 92.8713L76.8535 92.8693L75.875 91.125ZM24.75 91.875L23.8734 93.6726L23.8777 93.6748L24.75 91.875ZM35.4375 69.5625L33.9101 70.8537L33.9179 70.8628L35.4375 69.5625ZM63.375 29.5L61.8621 30.8081L61.8693 30.8165L61.8767 30.8248L63.375 29.5ZM35.5 29.5625L37.0196 30.8628L35.5 29.5625ZM2 49.5H4C4 34.922 8.0502 23.8407 15.9142 15.9767L14.5 14.5625L13.0858 13.1483C4.28313 21.9509 0 34.1613 0 49.5H2ZM14.5 14.5625L15.9142 15.9767C23.7803 8.11066 34.8215 4.0625 49.3125 4.0625V2.0625V0.0625C34.0535 0.0625 21.8864 4.34768 13.0858 13.1483L14.5 14.5625ZM49.3125 2.0625V4.0625C64.2043 4.0625 75.3823 8.06242 83.1519 15.7928L84.5625 14.375L85.9731 12.9572C77.2427 4.2709 64.9207 0.0625 49.3125 0.0625V2.0625ZM84.5625 14.375L83.1555 15.7964C90.9301 23.4925 94.9375 34.3819 94.9375 48.75H96.9375H98.9375C98.9375 33.6181 94.6949 21.5909 85.9695 12.9536L84.5625 14.375ZM96.9375 48.75H94.9375C94.9375 59.2498 93.1579 67.6926 89.7309 74.1922L91.5 75.125L93.2691 76.0578C97.0921 68.8074 98.9375 59.6669 98.9375 48.75H96.9375ZM91.5 75.125L89.7288 74.1962C86.3281 80.6811 81.3978 85.7337 74.8965 89.3807L75.875 91.125L76.8535 92.8693C84.0189 88.8497 89.5052 83.2355 93.2712 76.0538L91.5 75.125ZM75.875 91.125L74.9001 89.3787C68.4842 92.9606 60.3646 94.8125 50.4375 94.8125V96.8125V98.8125C60.8437 98.8125 69.6825 96.8727 76.8499 92.8713L75.875 91.125ZM50.4375 96.8125V94.8125C40.3009 94.8125 32.0609 93.1958 25.6223 90.0752L24.75 91.875L23.8777 93.6748C31.0224 97.1375 39.9074 98.8125 50.4375 98.8125V96.8125ZM24.75 91.875L25.6266 90.0774C19.2644 86.9748 14.0647 82.0563 10.0346 75.2329L8.3125 76.25L6.59045 77.2671C10.9769 84.6937 16.7356 90.1919 23.8734 93.6726L24.75 91.875ZM8.3125 76.25L10.0346 75.2329C6.05424 68.4939 4 59.9535 4 49.5H2H0C0 60.4632 2.15409 69.7561 6.59045 77.2671L8.3125 76.25ZM30.3125 49.625H28.3125C28.3125 59.028 30.0312 66.2652 33.9101 70.8537L35.4375 69.5625L36.9649 68.2713C34.0105 64.7765 32.3125 58.722 32.3125 49.625H30.3125ZM35.4375 69.5625L33.9179 70.8628C37.8017 75.4017 43.0726 77.625 49.5 77.625V75.625V73.625C44.094 73.625 39.99 71.8067 36.9571 68.2622L35.4375 69.5625ZM49.5 75.625V77.625C56.0585 77.625 61.3733 75.4664 65.1548 70.9758L63.625 69.6875L62.0952 68.3992C59.2101 71.8253 55.1082 73.625 49.5 73.625V75.625ZM63.625 69.6875L65.1548 70.9758C68.9741 66.4404 70.625 58.7025 70.625 48.375H68.625H66.625C66.625 58.5475 64.9426 65.0179 62.0952 68.3992L63.625 69.6875ZM68.625 48.375H70.625C70.625 39.5513 68.8472 32.6695 64.8733 28.1752L63.375 29.5L61.8767 30.8248C64.9028 34.2472 66.625 39.9487 66.625 48.375H68.625ZM63.375 29.5L64.8879 28.1919C60.999 23.6939 55.7069 21.5 49.25 21.5V23.5V25.5C54.7098 25.5 58.8344 27.3061 61.8621 30.8081L63.375 29.5ZM49.25 23.5V21.5C43.0057 21.5 37.8491 23.7409 33.9804 28.2622L35.5 29.5625L37.0196 30.8628C40.0675 27.3008 44.0776 25.5 49.25 25.5V23.5ZM35.5 29.5625L33.9804 28.2622C30.0514 32.854 28.3125 40.1402 28.3125 49.625H30.3125H32.3125C32.3125 40.4431 34.032 34.3544 37.0196 30.8628L35.5 29.5625ZM91.92 76.875L91.7327 74.8838L89.4617 75.0974L89.9704 77.321L91.92 76.875ZM117.17 74.5L119.059 73.844L118.545 72.3619L116.983 72.5088L117.17 74.5ZM136.982 80.6875L135.79 79.082L135.772 79.0952L135.755 79.1088L136.982 80.6875ZM136.295 72.375L137.22 70.6018L137.211 70.5971L136.295 72.375ZM125.357 69.75L125.704 67.7803L125.701 67.7798L125.357 69.75ZM106.92 65.5L106.193 67.3632L106.207 67.3685L106.22 67.3736L106.92 65.5ZM98.2325 58.8125L96.6299 60.0091L96.635 60.0159L96.6402 60.0227L98.2325 58.8125ZM109.045 29.75L109.699 31.6402L109.706 31.6375L109.714 31.6347L109.045 29.75ZM144.482 29.1875L143.869 31.0911L143.875 31.0931L144.482 29.1875ZM153.92 34.8125L152.494 36.215L152.5 36.2209L152.506 36.2267L153.92 34.8125ZM160.232 45.125L160.428 47.1154L163.042 46.8581L162.099 44.407L160.232 45.125ZM136.107 47.5L134.189 48.0643L134.656 49.6526L136.303 49.4904L136.107 47.5ZM132.982 42.8125L134.114 41.163L134.103 41.1557L134.092 41.1484L132.982 42.8125ZM119.42 42.375L120.644 43.9565L120.651 43.951L119.42 42.375ZM119.982 49.75L120.877 47.9611L119.982 49.75ZM130.857 52L130.62 53.9859L130.632 53.9873L130.857 52ZM159.17 63.3125L157.519 64.4419L157.524 64.4492L157.53 64.4565L159.17 63.3125ZM158.982 84.9375L157.301 83.855L157.296 83.8619L157.292 83.8688L158.982 84.9375ZM148.045 93.625L148.833 95.4633L148.84 95.4601L148.045 93.625ZM101.795 91.625L100.676 93.2829L100.683 93.287L101.795 91.625ZM91.92 76.875L92.1073 78.8662L117.357 76.4912L117.17 74.5L116.983 72.5088L91.7327 74.8838L91.92 76.875ZM117.17 74.5L115.281 75.156C116.408 78.4035 118.07 80.9725 120.41 82.5845L121.545 80.9375L122.68 79.2905C121.27 78.3192 120.015 76.5965 119.059 73.844L117.17 74.5ZM121.545 80.9375L120.41 82.5845C122.723 84.1773 125.662 84.875 129.045 84.875V82.875V80.875C126.178 80.875 124.117 80.281 122.68 79.2905L121.545 80.9375ZM129.045 82.875V84.875C132.717 84.875 135.86 84.0946 138.21 82.2662L136.982 80.6875L135.755 79.1088C134.355 80.1971 132.206 80.875 129.045 80.875V82.875ZM136.982 80.6875L138.175 82.293C140.072 80.8836 141.17 78.964 141.17 76.625H139.17H137.17C137.17 77.536 136.809 78.3248 135.79 79.082L136.982 80.6875ZM139.17 76.625H141.17C141.17 73.8977 139.654 71.8717 137.22 70.6018L136.295 72.375L135.37 74.1482C136.769 74.8783 137.17 75.6857 137.17 76.625H139.17ZM136.295 72.375L137.211 70.5971C136.286 70.1206 134.817 69.6797 132.996 69.2427C131.117 68.7918 128.682 68.3046 125.704 67.7803L125.357 69.75L125.011 71.7197C127.95 72.2371 130.296 72.7082 132.063 73.1323C133.888 73.5703 134.929 73.921 135.379 74.1529L136.295 72.375ZM125.357 69.75L125.701 67.7798C116.866 66.2378 110.886 64.8464 107.62 63.6264L106.92 65.5L106.22 67.3736C109.871 68.737 116.182 70.1788 125.014 71.7202L125.357 69.75ZM106.92 65.5L107.647 63.6368C104.598 62.4468 101.993 60.4556 99.8248 57.6023L98.2325 58.8125L96.6402 60.0227C99.2217 63.4194 102.409 65.8865 106.193 67.3632L106.92 65.5ZM98.2325 58.8125L99.8351 57.6159C97.7668 54.8459 96.7325 51.7056 96.7325 48.125H94.7325H92.7325C92.7325 52.5444 94.0316 56.5291 96.6299 60.0091L98.2325 58.8125ZM94.7325 48.125H96.7325C96.7325 44.1675 97.8708 40.8477 100.105 38.0644L98.545 36.8125L96.9853 35.5606C94.1359 39.1107 92.7325 43.3325 92.7325 48.125H94.7325ZM98.545 36.8125L100.105 38.0644C102.374 35.2366 105.538 33.079 109.699 31.6402L109.045 29.75L108.391 27.8598C103.636 29.5043 99.7989 32.0551 96.9853 35.5606L98.545 36.8125ZM109.045 29.75L109.714 31.6347C113.87 30.159 119.593 29.375 126.982 29.375V27.375V25.375C119.372 25.375 113.137 26.1744 108.376 27.8653L109.045 29.75ZM126.982 27.375V29.375C134.857 29.375 140.43 29.9829 143.869 31.0911L144.482 29.1875L145.096 27.2839C141.035 25.9754 134.942 25.375 126.982 25.375V27.375ZM144.482 29.1875L143.875 31.0931C147.394 32.2144 150.248 33.9309 152.494 36.215L153.92 34.8125L155.346 33.41C152.592 30.6107 149.155 28.5773 145.09 27.2819L144.482 29.1875ZM153.92 34.8125L152.506 36.2267C154.801 38.5218 156.771 41.6977 158.366 45.843L160.232 45.125L162.099 44.407C160.36 39.8856 158.122 36.1866 155.334 33.3983L153.92 34.8125ZM160.232 45.125L160.037 43.1346L135.912 45.5096L136.107 47.5L136.303 49.4904L160.428 47.1154L160.232 45.125ZM136.107 47.5L138.026 46.9357C137.305 44.4834 136.039 42.4836 134.114 41.163L132.982 42.8125L131.851 44.462C132.842 45.1414 133.66 46.2666 134.189 48.0643L136.107 47.5ZM132.982 42.8125L134.092 41.1484C131.708 39.5592 128.889 38.8125 125.732 38.8125V40.8125V42.8125C128.243 42.8125 130.257 43.3991 131.873 44.4766L132.982 42.8125ZM125.732 40.8125V38.8125C122.694 38.8125 120.046 39.3483 118.189 40.799L119.42 42.375L120.651 43.951C121.461 43.3184 123.021 42.8125 125.732 42.8125V40.8125ZM119.42 42.375L118.196 40.7936C116.482 42.1204 115.482 43.9052 115.482 46.0625H117.482H119.482C119.482 45.3031 119.775 44.6296 120.644 43.9564L119.42 42.375ZM117.482 46.0625H115.482C115.482 47.2357 115.79 48.3485 116.452 49.3254C117.104 50.2873 118.025 51.0073 119.088 51.5389L119.982 49.75L120.877 47.9611C120.273 47.6593 119.944 47.3481 119.763 47.0808C119.592 46.8286 119.482 46.5143 119.482 46.0625H117.482ZM119.982 49.75L119.088 51.5389C120.163 52.0763 121.696 52.5133 123.546 52.896C125.435 53.2868 127.798 53.6489 130.62 53.9859L130.857 52L131.095 50.0141C128.334 49.6844 126.093 49.3382 124.356 48.979C122.581 48.6117 121.469 48.257 120.877 47.9611L119.982 49.75ZM130.857 52L130.632 53.9873C139.041 54.94 145.107 56.2491 148.967 57.8478L149.732 56L150.498 54.1522C146.108 52.3342 139.591 50.9767 131.083 50.0127L130.857 52ZM149.732 56L148.967 57.8478C152.794 59.4325 155.606 61.6452 157.519 64.4419L159.17 63.3125L160.821 62.1831C158.401 58.6465 154.921 55.9842 150.498 54.1522L149.732 56ZM159.17 63.3125L157.53 64.4565C159.508 67.2941 160.482 70.3754 160.482 73.75H162.482H164.482C164.482 69.5413 163.248 65.6642 160.81 62.1685L159.17 63.3125ZM162.482 73.75H160.482C160.482 77.1529 159.453 80.5113 157.301 83.855L158.982 84.9375L160.664 86.02C163.179 82.1137 164.482 78.0138 164.482 73.75H162.482ZM158.982 84.9375L157.292 83.8688C155.266 87.0727 151.981 89.7398 147.25 91.7899L148.045 93.625L148.84 95.4601C154.109 93.1769 158.115 90.0523 160.673 86.0062L158.982 84.9375ZM148.045 93.625L147.257 91.7867C142.651 93.7606 136.187 94.8125 127.732 94.8125V96.8125V98.8125C136.445 98.8125 143.522 97.7394 148.833 95.4633L148.045 93.625ZM127.732 96.8125V94.8125C115.689 94.8125 107.556 93.0742 102.907 89.963L101.795 91.625L100.683 93.287C106.368 97.0924 115.526 98.8125 127.732 98.8125V96.8125ZM101.795 91.625L102.914 89.9671C98.2354 86.8102 95.222 82.3407 93.8696 76.429L91.92 76.875L89.9704 77.321C91.5347 84.1593 95.1046 89.5231 100.676 93.2829L101.795 91.625ZM160.777 28.875V26.875H158.777V28.875H160.777ZM184.527 28.875H186.527V26.875H184.527V28.875ZM184.527 38.5625H182.527V44.0263L186.055 39.8537L184.527 38.5625ZM194.84 29.9375L193.963 28.1402L193.954 28.1443L194.84 29.9375ZM227.59 38.5625L225.821 39.4964L227.142 41.9967L229.06 39.9191L227.59 38.5625ZM238.527 29.75L239.376 31.5612L239.385 31.5568L239.394 31.5523L238.527 29.75ZM267.402 33.75L265.946 35.1207L265.953 35.1279L267.402 33.75ZM273.402 95.25V97.25H275.402V95.25H273.402ZM247.902 95.25H245.902V97.25H247.902V95.25ZM246.152 50.75L244.549 51.9453L244.569 51.9727L244.591 51.9994L246.152 50.75ZM229.777 95.25V97.25H231.777V95.25H229.777ZM204.277 95.25H202.277V97.25H204.277V95.25ZM203.777 52.75L205.682 52.1404L205.68 52.1318L203.777 52.75ZM200.965 48.75L199.734 50.326L199.749 50.3382L199.765 50.35L200.965 48.75ZM186.277 95.25V97.25H188.277V95.25H186.277ZM160.777 95.25H158.777V97.25H160.777V95.25ZM160.777 28.875V30.875H184.527V28.875V26.875H160.777V28.875ZM184.527 28.875H182.527V38.5625H184.527H186.527V28.875H184.527ZM184.527 38.5625L186.055 39.8537C189.356 35.9484 192.587 33.2812 195.726 31.7307L194.84 29.9375L193.954 28.1443C190.176 30.0105 186.532 33.0932 183 37.2713L184.527 38.5625ZM194.84 29.9375L195.717 31.7348C198.882 30.1901 202.775 29.375 207.465 29.375V27.375V25.375C202.322 25.375 197.798 26.2682 193.963 28.1402L194.84 29.9375ZM207.465 27.375V29.375C212.551 29.375 216.332 30.2807 218.988 31.8963L220.027 30.1875L221.067 28.4787C217.557 26.3443 212.963 25.375 207.465 25.375V27.375ZM220.027 30.1875L218.988 31.8963C221.716 33.555 224.004 36.055 225.821 39.4964L227.59 38.5625L229.359 37.6286C227.259 33.6533 224.506 30.57 221.067 28.4787L220.027 30.1875ZM227.59 38.5625L229.06 39.9191C232.98 35.6722 236.42 32.9457 239.376 31.5612L238.527 29.75L237.679 27.9388C234.052 29.6376 230.2 32.7861 226.12 37.2059L227.59 38.5625ZM238.527 29.75L239.394 31.5523C242.343 30.1341 246.089 29.375 250.715 29.375V27.375V25.375C245.674 25.375 241.295 26.1992 237.661 27.9477L238.527 29.75ZM250.715 27.375V29.375C257.419 29.375 262.405 31.3586 265.946 35.1207L267.402 33.75L268.859 32.3793C264.4 27.6414 258.261 25.375 250.715 25.375V27.375ZM267.402 33.75L265.953 35.1279C269.448 38.805 271.402 44.8023 271.402 53.5625H273.402H275.402C275.402 44.3227 273.357 37.1116 268.852 32.3721L267.402 33.75ZM273.402 53.5625H271.402V95.25H273.402H275.402V53.5625H273.402ZM273.402 95.25V93.25H247.902V95.25V97.25H273.402V95.25ZM247.902 95.25H249.902V57.4375H247.902H245.902V95.25H247.902ZM247.902 57.4375H249.902C249.902 54.2399 249.292 51.4722 247.714 49.5006L246.152 50.75L244.591 51.9994C245.347 52.9445 245.902 54.6351 245.902 57.4375H247.902ZM246.152 50.75L247.756 49.5547C245.724 46.8291 243.036 45.3125 239.777 45.3125V47.3125V49.3125C241.602 49.3125 243.164 50.0876 244.549 51.9453L246.152 50.75ZM239.777 47.3125V45.3125C236.227 45.3125 233.238 46.6264 231.001 49.2706L232.527 50.5625L234.054 51.8544C235.484 50.1653 237.327 49.3125 239.777 49.3125V47.3125ZM232.527 50.5625L231.001 49.2706C228.712 51.975 227.777 56.0343 227.777 61H229.777H231.777C231.777 56.3823 232.676 53.4834 234.054 51.8544L232.527 50.5625ZM229.777 61H227.777V95.25H229.777H231.777V61H229.777ZM229.777 95.25V93.25H204.277V95.25V97.25H229.777V95.25ZM204.277 95.25H206.277V58.6875H204.277H202.277V95.25H204.277ZM204.277 58.6875H206.277C206.277 55.7983 206.124 53.5198 205.682 52.1404L203.777 52.75L201.873 53.3596C202.098 54.0635 202.277 55.7433 202.277 58.6875H204.277ZM203.777 52.75L205.68 52.1318C205.018 50.0948 203.845 48.4103 202.165 47.15L200.965 48.75L199.765 50.35C200.751 51.0897 201.454 52.0719 201.875 53.3682L203.777 52.75ZM200.965 48.75L202.196 47.174C200.49 45.8407 198.487 45.1875 196.277 45.1875V47.1875V49.1875C197.651 49.1875 198.774 49.576 199.734 50.326L200.965 48.75ZM196.277 47.1875V45.1875C192.778 45.1875 189.823 46.5461 187.565 49.2055L189.09 50.5L190.615 51.7945C192.107 50.0372 193.943 49.1875 196.277 49.1875V47.1875ZM189.09 50.5L187.565 49.2055C185.226 51.9604 184.277 56.1774 184.277 61.375H186.277H188.277C188.277 56.4892 189.204 53.4563 190.615 51.7945L189.09 50.5ZM186.277 61.375H184.277V95.25H186.277H188.277V61.375H186.277ZM186.277 95.25V93.25H160.777V95.25V97.25H186.277V95.25ZM160.777 95.25H162.777V28.875H160.777H158.777V95.25H160.777ZM275.448 3.625V1.625H273.448V3.625H275.448ZM300.885 3.625H302.885V1.625H300.885V3.625ZM300.885 20.9375V22.9375H302.885V20.9375H300.885ZM275.448 20.9375H273.448V22.9375H275.448V20.9375ZM275.448 28.875V26.875H273.448V28.875H275.448ZM300.885 28.875H302.885V26.875H300.885V28.875ZM300.885 95.25V97.25H302.885V95.25H300.885ZM275.448 95.25H273.448V97.25H275.448V95.25ZM275.448 3.625V5.625H300.885V3.625V1.625H275.448V3.625ZM300.885 3.625H298.885V20.9375H300.885H302.885V3.625H300.885ZM300.885 20.9375V18.9375H275.448V20.9375V22.9375H300.885V20.9375ZM275.448 20.9375H277.448V3.625H275.448H273.448V20.9375H275.448ZM275.448 28.875V30.875H300.885V28.875V26.875H275.448V28.875ZM300.885 28.875H298.885V95.25H300.885H302.885V28.875H300.885ZM300.885 95.25V93.25H275.448V95.25V97.25H300.885V95.25ZM275.448 95.25H277.448V28.875H275.448H273.448V95.25H275.448ZM372.992 95.25V97.25H374.992V95.25H372.992ZM349.242 95.25H347.242V97.25H349.242V95.25ZM349.242 84.5H351.242V78.8089L347.682 83.2488L349.242 84.5ZM338.492 93.9375L337.574 92.161L337.565 92.1654L338.492 93.9375ZM308.742 90.5L307.286 91.8703L307.293 91.8777L307.3 91.8851L308.742 90.5ZM302.805 28.875V26.875H300.805V28.875H302.805ZM328.367 28.875H330.367V26.875H328.367V28.875ZM344.617 73.375L343.086 72.0893L343.079 72.0974L343.072 72.1055L344.617 73.375ZM347.555 28.875V26.875H345.555V28.875H347.555ZM372.992 28.875H374.992V26.875H372.992V28.875ZM372.992 95.25V93.25H349.242V95.25V97.25H372.992V95.25ZM349.242 95.25H351.242V84.5H349.242H347.242V95.25H349.242ZM349.242 84.5L347.682 83.2488C344.252 87.5265 340.874 90.4539 337.574 92.1611L338.492 93.9375L339.411 95.7139C343.361 93.6711 347.15 90.3069 350.803 85.7512L349.242 84.5ZM338.492 93.9375L337.565 92.1654C334.341 93.8528 330.263 94.75 325.242 94.75V96.75V98.75C330.722 98.75 335.478 97.7722 339.42 95.7096L338.492 93.9375ZM325.242 96.75V94.75C318.663 94.75 313.73 92.8075 310.185 89.1149L308.742 90.5L307.3 91.8851C311.755 96.5258 317.822 98.75 325.242 98.75V96.75ZM308.742 90.5L310.199 89.1297C306.731 85.4425 304.805 79.5766 304.805 71.125H302.805H300.805C300.805 80.0901 302.837 87.1408 307.286 91.8703L308.742 90.5ZM302.805 71.125H304.805V28.875H302.805H300.805V71.125H302.805ZM302.805 28.875V30.875H328.367V28.875V26.875H302.805V28.875ZM328.367 28.875H326.367V65.375H328.367H330.367V28.875H328.367ZM328.367 65.375H326.367C326.367 69.6837 327.144 73.262 329.179 75.5721L330.68 74.25L332.181 72.9279C331.132 71.738 330.367 69.3996 330.367 65.375H328.367ZM330.68 74.25L329.179 75.5721C331.175 77.8379 333.938 78.875 337.18 78.875V76.875V74.875C334.839 74.875 333.268 74.1621 332.181 72.9279L330.68 74.25ZM337.18 76.875V78.875C340.815 78.875 343.863 77.4442 346.163 74.6445L344.617 73.375L343.072 72.1055C341.538 73.9725 339.628 74.875 337.18 74.875V76.875ZM344.617 73.375L346.149 74.6607C348.592 71.7507 349.555 66.9308 349.555 60.8125H347.555H345.555C345.555 66.7775 344.56 70.3326 343.086 72.0893L344.617 73.375ZM347.555 60.8125H349.555V28.875H347.555H345.555V60.8125H347.555ZM347.555 28.875V30.875H372.992V28.875V26.875H347.555V28.875ZM372.992 28.875H370.992V95.25H372.992H374.992V28.875H372.992ZM374.538 28.875V26.875H372.538V28.875H374.538ZM398.288 28.875H400.288V26.875H398.288V28.875ZM398.288 38.5625H396.288V44.0263L399.815 39.8537L398.288 38.5625ZM408.6 29.9375L407.723 28.1402L407.714 28.1443L408.6 29.9375ZM441.35 38.5625L439.581 39.4964L440.902 41.9967L442.82 39.9191L441.35 38.5625ZM452.288 29.75L453.136 31.5612L453.145 31.5568L453.154 31.5523L452.288 29.75ZM481.163 33.75L479.706 35.1207L479.713 35.1279L481.163 33.75ZM487.163 95.25V97.25H489.163V95.25H487.163ZM461.663 95.25H459.663V97.25H461.663V95.25ZM459.913 50.75L458.309 51.9453L458.329 51.9727L458.351 51.9994L459.913 50.75ZM443.538 95.25V97.25H445.538V95.25H443.538ZM418.038 95.25H416.038V97.25H418.038V95.25ZM417.538 52.75L419.442 52.1404L419.44 52.1318L417.538 52.75ZM414.725 48.75L413.494 50.326L413.509 50.3382L413.525 50.35L414.725 48.75ZM400.038 95.25V97.25H402.038V95.25H400.038ZM374.538 95.25H372.538V97.25H374.538V95.25ZM374.538 28.875V30.875H398.288V28.875V26.875H374.538V28.875ZM398.288 28.875H396.288V38.5625H398.288H400.288V28.875H398.288ZM398.288 38.5625L399.815 39.8537C403.116 35.9484 406.347 33.2812 409.486 31.7307L408.6 29.9375L407.714 28.1443C403.936 30.0105 400.292 33.0932 396.76 37.2713L398.288 38.5625ZM408.6 29.9375L409.477 31.7348C412.642 30.1901 416.535 29.375 421.225 29.375V27.375V25.375C416.082 25.375 411.558 26.2682 407.723 28.1402L408.6 29.9375ZM421.225 27.375V29.375C426.311 29.375 430.092 30.2807 432.748 31.8963L433.788 30.1875L434.827 28.4787C431.317 26.3443 426.723 25.375 421.225 25.375V27.375ZM433.788 30.1875L432.748 31.8963C435.476 33.555 437.764 36.055 439.581 39.4964L441.35 38.5625L443.119 37.6286C441.019 33.6533 438.266 30.57 434.827 28.4787L433.788 30.1875ZM441.35 38.5625L442.82 39.9191C446.74 35.6722 450.18 32.9457 453.136 31.5612L452.288 29.75L451.439 27.9388C447.812 29.6376 443.96 32.7861 439.88 37.2059L441.35 38.5625ZM452.288 29.75L453.154 31.5523C456.103 30.1341 459.849 29.375 464.475 29.375V27.375V25.375C459.434 25.375 455.055 26.1992 451.421 27.9477L452.288 29.75ZM464.475 27.375V29.375C471.179 29.375 476.165 31.3586 479.706 35.1207L481.163 33.75L482.619 32.3793C478.16 27.6414 472.021 25.375 464.475 25.375V27.375ZM481.163 33.75L479.713 35.1279C483.208 38.805 485.163 44.8023 485.163 53.5625H487.163H489.163C489.163 44.3227 487.117 37.1116 482.612 32.3721L481.163 33.75ZM487.163 53.5625H485.163V95.25H487.163H489.163V53.5625H487.163ZM487.163 95.25V93.25H461.663V95.25V97.25H487.163V95.25ZM461.663 95.25H463.663V57.4375H461.663H459.663V95.25H461.663ZM461.663 57.4375H463.663C463.663 54.2399 463.052 51.4722 461.474 49.5006L459.913 50.75L458.351 51.9994C459.107 52.9445 459.663 54.6351 459.663 57.4375H461.663ZM459.913 50.75L461.516 49.5547C459.484 46.8291 456.796 45.3125 453.538 45.3125V47.3125V49.3125C455.362 49.3125 456.924 50.0876 458.309 51.9453L459.913 50.75ZM453.538 47.3125V45.3125C449.987 45.3125 446.998 46.6264 444.761 49.2706L446.288 50.5625L447.814 51.8544C449.244 50.1653 451.088 49.3125 453.538 49.3125V47.3125ZM446.288 50.5625L444.761 49.2706C442.472 51.975 441.538 56.0343 441.538 61H443.538H445.538C445.538 56.3823 446.436 53.4834 447.814 51.8544L446.288 50.5625ZM443.538 61H441.538V95.25H443.538H445.538V61H443.538ZM443.538 95.25V93.25H418.038V95.25V97.25H443.538V95.25ZM418.038 95.25H420.038V58.6875H418.038H416.038V95.25H418.038ZM418.038 58.6875H420.038C420.038 55.7983 419.884 53.5198 419.442 52.1404L417.538 52.75L415.633 53.3596C415.858 54.0635 416.038 55.7433 416.038 58.6875H418.038ZM417.538 52.75L419.44 52.1318C418.778 50.0948 417.605 48.4103 415.925 47.15L414.725 48.75L413.525 50.35C414.511 51.0897 415.214 52.0719 415.635 53.3682L417.538 52.75ZM414.725 48.75L415.956 47.174C414.25 45.8407 412.247 45.1875 410.038 45.1875V47.1875V49.1875C411.411 49.1875 412.534 49.576 413.494 50.326L414.725 48.75ZM410.038 47.1875V45.1875C406.538 45.1875 403.583 46.5461 401.325 49.2055L402.85 50.5L404.375 51.7945C405.867 50.0372 407.703 49.1875 410.038 49.1875V47.1875ZM402.85 50.5L401.325 49.2055C398.986 51.9604 398.038 56.1774 398.038 61.375H400.038H402.038C402.038 56.4892 402.964 53.4563 404.375 51.7945L402.85 50.5ZM400.038 61.375H398.038V95.25H400.038H402.038V61.375H400.038ZM400.038 95.25V93.25H374.538V95.25V97.25H400.038V95.25ZM374.538 95.25H376.538V28.875H374.538H372.538V95.25H374.538ZM499.02 14.9375L500.469 16.3161L500.472 16.3126L499.02 14.9375ZM569.02 25L567.223 25.8779L567.229 25.8903L569.02 25ZM552.833 91.1875L553.79 92.9433L553.798 92.9388L552.833 91.1875ZM508.145 76.9375L506.679 78.2981L506.688 78.3079L508.145 76.9375ZM553.02 76.8125L551.55 75.4567L551.545 75.4619L553.02 76.8125ZM558.083 30L556.257 30.8173L556.261 30.8256L556.265 30.8338L558.083 30ZM547.02 17.0625L545.944 18.7486L545.953 18.754L545.961 18.7593L547.02 17.0625ZM508.52 21.3125L509.9 22.7605L509.9 22.7603L508.52 21.3125ZM486.77 50.625H488.77C488.77 35.7786 492.748 24.4309 500.469 16.3161L499.02 14.9375L497.571 13.5589C488.959 22.6108 484.77 35.0547 484.77 50.625H486.77ZM499.02 14.9375L500.472 16.3126C508.226 8.12372 518.224 4 530.645 4V2V0C517.232 0 506.147 4.50128 497.568 13.5624L499.02 14.9375ZM530.645 2V4C538.77 4 546.037 5.93662 552.497 9.7812L553.52 8.0625L554.543 6.3438C547.42 2.10505 539.437 0 530.645 0V2ZM553.52 8.0625L552.497 9.7812C558.947 13.6195 563.848 18.9697 567.223 25.8779L569.02 25L570.817 24.1221C567.108 16.5303 561.676 10.5888 554.543 6.3438L553.52 8.0625ZM569.02 25L567.229 25.8903C570.657 32.7858 572.395 40.6617 572.395 49.5625H574.395H576.395C576.395 40.13 574.55 31.6308 570.811 24.1097L569.02 25ZM574.395 49.5625H572.395C572.395 58.5785 570.578 66.5723 566.989 73.5894L568.77 74.5L570.551 75.4106C574.462 67.761 576.395 59.1298 576.395 49.5625H574.395ZM568.77 74.5L566.989 73.5894C563.412 80.5859 558.375 85.847 551.867 89.4362L552.833 91.1875L553.798 92.9388C561.04 88.9447 566.628 83.0807 570.551 75.4106L568.77 74.5ZM552.833 91.1875L551.875 89.4317C545.299 93.0188 538.212 94.8125 530.583 94.8125V96.8125V98.8125C538.87 98.8125 546.616 96.8562 553.79 92.9433L552.833 91.1875ZM530.583 96.8125V94.8125C522.295 94.8125 514.954 92.8155 508.503 88.8577L507.457 90.5625L506.412 92.2673C513.544 96.6429 521.62 98.8125 530.583 98.8125V96.8125ZM507.457 90.5625L508.503 88.8577C502.039 84.8918 497.153 79.4936 493.819 72.6264L492.02 73.5L490.221 74.3736C493.887 81.9231 499.293 87.8999 506.412 92.2673L507.457 90.5625ZM492.02 73.5L493.819 72.6264C490.452 65.6913 488.77 58.3652 488.77 50.625H486.77H484.77C484.77 58.9682 486.588 66.892 490.221 74.3736L492.02 73.5ZM499.27 50.8125H497.27C497.27 62.2175 500.334 71.4612 506.679 78.298L508.145 76.9375L509.611 75.577C504.123 69.6638 501.27 61.4908 501.27 50.8125H499.27ZM508.145 76.9375L506.688 78.3079C513.037 85.0565 521.029 88.4375 530.52 88.4375V86.4375V84.4375C522.094 84.4375 515.169 81.4851 509.602 75.5671L508.145 76.9375ZM530.52 86.4375V88.4375C540.175 88.4375 548.221 85.0158 554.495 78.1631L553.02 76.8125L551.545 75.4619C546.069 81.4425 539.115 84.4375 530.52 84.4375V86.4375ZM553.02 76.8125L554.49 78.1683C560.852 71.2688 563.895 61.6149 563.895 49.5H561.895H559.895C559.895 60.9684 557.021 69.5228 551.55 75.4567L553.02 76.8125ZM561.895 49.5H563.895C563.895 41.8167 562.586 35.0212 559.9 29.1662L558.083 30L556.265 30.8338C558.663 36.0622 559.895 42.2666 559.895 49.5H561.895ZM558.083 30L559.908 29.1827C557.256 23.2612 553.313 18.6317 548.079 15.3657L547.02 17.0625L545.961 18.7593C550.477 21.5767 553.909 25.5722 556.257 30.8173L558.083 30ZM547.02 17.0625L548.096 15.3764C542.923 12.0768 537.109 10.4375 530.708 10.4375V12.4375V14.4375C536.39 14.4375 541.45 15.8815 545.944 18.7486L547.02 17.0625ZM530.708 12.4375V10.4375C521.611 10.4375 513.721 13.5932 507.14 19.8647L508.52 21.3125L509.9 22.7603C515.736 17.1984 522.637 14.4375 530.708 14.4375V12.4375ZM508.52 21.3125L507.14 19.8645C500.391 26.2948 497.27 36.8005 497.27 50.8125H499.27H501.27C501.27 37.2412 504.316 28.0802 509.9 22.7605L508.52 21.3125ZM571.878 65.8125L571.703 63.8201L569.827 63.9841L569.878 65.8669L571.878 65.8125ZM583.315 64.8125L585.301 64.5778L585.073 62.6511L583.141 62.8201L583.315 64.8125ZM587.065 76.125L585.397 77.229L585.406 77.2426L585.416 77.2561L587.065 76.125ZM596.315 83.25L595.51 85.0806L595.517 85.084L595.525 85.0873L596.315 83.25ZM630.503 78.25L628.883 77.077L628.879 77.0821L630.503 78.25ZM630.628 62.875L629.042 64.0944L629.048 64.1019L629.054 64.1093L630.628 62.875ZM622.378 57.4375L621.651 59.3009L621.659 59.3039L621.666 59.3068L622.378 57.4375ZM606.065 53L605.594 54.9437L605.603 54.9458L606.065 53ZM588.378 47.25L589.315 45.4835L589.306 45.4783L588.378 47.25ZM578.565 38.75L576.867 39.8063L576.874 39.8184L576.882 39.8305L578.565 38.75ZM579.315 14.375L580.987 15.4723L580.992 15.4644L579.315 14.375ZM625.565 5.375L624.779 7.21406L624.788 7.21786L624.797 7.22159L625.565 5.375ZM642.065 29.4375L642.215 31.4319L644.138 31.2871L644.063 29.36L642.065 29.4375ZM630.44 30.3125L628.452 30.5271L628.659 32.4522L630.59 32.3069L630.44 30.3125ZM624.065 17.1875L622.792 18.7298L622.8 18.737L624.065 17.1875ZM592.065 16.8125L593.314 18.3742L593.317 18.3724L592.065 16.8125ZM590.628 34.625L591.974 33.1463L591.968 33.1404L591.961 33.1345L590.628 34.625ZM608.878 41.1875L608.431 43.1371L608.441 43.1393L608.878 41.1875ZM629.19 47L630.027 45.1836L630.018 45.1793L629.19 47ZM641.003 56.375L639.341 57.4886L639.347 57.4971L641.003 56.375ZM640.628 83.1875L642.304 84.2781L642.309 84.2706L640.628 83.1875ZM628.565 93.25L629.395 95.0697L629.401 95.0668L628.565 93.25ZM590.065 93.1875L589.271 95.0229L589.276 95.0251L590.065 93.1875ZM576.878 82.3125L575.2 83.402L575.206 83.4103L575.211 83.4186L576.878 82.3125ZM571.878 65.8125L572.052 67.8049L583.489 66.8049L583.315 64.8125L583.141 62.8201L571.703 63.8201L571.878 65.8125ZM583.315 64.8125L581.329 65.0472C581.897 69.8511 583.222 73.9434 585.397 77.229L587.065 76.125L588.733 75.021C586.991 72.39 585.817 68.9406 585.301 64.5778L583.315 64.8125ZM587.065 76.125L585.416 77.2561C587.679 80.5566 591.098 83.1397 595.51 85.0806L596.315 83.25L597.12 81.4194C593.198 79.6936 590.451 77.5267 588.714 74.9939L587.065 76.125ZM596.315 83.25L595.525 85.0873C599.976 87.0011 604.938 87.9375 610.378 87.9375V85.9375V83.9375C605.401 83.9375 600.988 83.0823 597.105 81.4127L596.315 83.25ZM610.378 85.9375V87.9375C615.198 87.9375 619.535 87.2212 623.351 85.7394L622.628 83.875L621.904 82.0106C618.637 83.2788 614.807 83.9375 610.378 83.9375V85.9375ZM622.628 83.875L623.351 85.7394C627.148 84.2655 630.133 82.1886 632.126 79.4179L630.503 78.25L628.879 77.0821C627.455 79.0614 625.191 80.7345 621.904 82.0106L622.628 83.875ZM630.503 78.25L632.122 79.423C634.106 76.6844 635.128 73.6528 635.128 70.375H633.128H631.128C631.128 72.7639 630.399 74.9823 628.883 77.077L630.503 78.25ZM633.128 70.375H635.128C635.128 67.0834 634.163 64.1415 632.201 61.6407L630.628 62.875L629.054 64.1093C630.426 65.8585 631.128 67.9166 631.128 70.375H633.128ZM630.628 62.875L632.213 61.6556C630.234 59.0838 627.107 57.0968 623.089 55.5682L622.378 57.4375L621.666 59.3068C625.315 60.6948 627.687 62.3329 629.042 64.0944L630.628 62.875ZM622.378 57.4375L623.104 55.5741C620.492 54.5559 614.912 53.0467 606.527 51.0542L606.065 53L605.603 54.9458C614.051 56.9533 619.346 58.4024 621.651 59.3009L622.378 57.4375ZM606.065 53L606.536 51.0564C598.13 49.0172 592.45 47.1474 589.315 45.4835L588.378 47.25L587.44 49.0165C591.055 50.9359 597.166 52.8994 605.594 54.9436L606.065 53ZM588.378 47.25L589.306 45.4783C585.167 43.3107 582.188 40.6921 580.248 37.6695L578.565 38.75L576.882 39.8305C579.275 43.5579 582.838 46.6059 587.449 49.0217L588.378 47.25ZM578.565 38.75L580.263 37.6937C578.345 34.609 577.378 31.1655 577.378 27.3125H575.378H573.378C573.378 31.8762 574.535 36.0576 576.867 39.8063L578.565 38.75ZM575.378 27.3125H577.378C577.378 23.0914 578.568 19.1582 580.987 15.4723L579.315 14.375L577.643 13.2777C574.812 17.5918 573.378 22.2836 573.378 27.3125H575.378ZM579.315 14.375L580.992 15.4644C583.368 11.806 586.86 8.98571 591.579 7.0359L590.815 5.1875L590.051 3.3391C584.686 5.55595 580.512 8.86063 577.638 13.2856L579.315 14.375ZM590.815 5.1875L591.579 7.0359C596.349 5.06489 601.689 4.0625 607.628 4.0625V2.0625V0.0625C601.233 0.0625 595.365 1.14345 590.051 3.3391L590.815 5.1875ZM607.628 2.0625V4.0625C614.204 4.0625 619.907 5.13164 624.779 7.21406L625.565 5.375L626.351 3.53594C620.89 1.2017 614.634 0.0625 607.628 0.0625V2.0625ZM625.565 5.375L624.797 7.22159C629.678 9.25215 633.345 12.2184 635.893 16.098L637.565 15L639.237 13.902C636.202 9.28162 631.869 5.83118 626.333 3.52841L625.565 5.375ZM637.565 15L635.893 16.098C638.474 20.0261 639.871 24.4816 640.067 29.515L642.065 29.4375L644.063 29.36C643.842 23.6434 642.24 18.4739 639.237 13.902L637.565 15ZM642.065 29.4375L641.915 27.4431L630.29 28.3181L630.44 30.3125L630.59 32.3069L642.215 31.4319L642.065 29.4375ZM630.44 30.3125L632.428 30.0979C631.762 23.9186 629.456 19.0059 625.33 15.638L624.065 17.1875L622.8 18.737C625.924 21.2858 627.868 25.123 628.452 30.5271L630.44 30.3125ZM624.065 17.1875L625.338 15.6452C621.253 12.272 615.404 10.75 608.128 10.75V12.75V14.75C614.934 14.75 619.711 16.1863 622.792 18.7298L624.065 17.1875ZM608.128 12.75V10.75C600.627 10.75 594.717 12.1203 590.813 15.2526L592.065 16.8125L593.317 18.3724C596.163 16.0881 600.961 14.75 608.128 14.75V12.75ZM592.065 16.8125L590.816 15.2508C587.076 18.2429 585.065 22.0191 585.065 26.5H587.065H589.065C589.065 23.3975 590.388 20.7155 593.314 18.3742L592.065 16.8125ZM587.065 26.5H585.065C585.065 30.3394 586.479 33.5971 589.294 36.1155L590.628 34.625L591.961 33.1345C590.026 31.4029 589.065 29.244 589.065 26.5H587.065ZM590.628 34.625L589.281 36.1037C590.756 37.4471 593.179 38.6323 596.263 39.7414C599.41 40.8729 603.475 42.0029 608.431 43.1371L608.878 41.1875L609.324 39.2379C604.447 38.1221 600.553 37.0334 597.617 35.9774C594.618 34.8989 592.832 33.9279 591.974 33.1463L590.628 34.625ZM608.878 41.1875L608.441 43.1393C618.323 45.3492 624.907 47.2499 628.362 48.8207L629.19 47L630.018 45.1793C626.14 43.4167 619.182 41.4424 609.314 39.2357L608.878 41.1875ZM629.19 47L628.353 48.8163C633.446 51.1641 637.055 54.0785 639.341 57.4886L641.003 56.375L642.664 55.2614C639.866 51.0882 635.6 47.7526 630.027 45.1837L629.19 47ZM641.003 56.375L639.347 57.4971C641.645 60.8875 642.815 64.8227 642.815 69.375H644.815H646.815C646.815 64.094 645.443 59.3625 642.658 55.2529L641.003 56.375ZM644.815 69.375H642.815C642.815 73.8433 641.542 78.0745 638.946 82.1044L640.628 83.1875L642.309 84.2706C645.296 79.6338 646.815 74.6567 646.815 69.375H644.815ZM640.628 83.1875L638.951 82.097C636.391 86.0326 632.681 89.1535 627.729 91.4332L628.565 93.25L629.401 95.0668C634.949 92.5131 639.281 88.9257 642.304 84.278L640.628 83.1875ZM628.565 93.25L627.735 91.4303C622.822 93.6706 617.236 94.8125 610.94 94.8125V96.8125V98.8125C617.727 98.8125 623.891 97.5794 629.395 95.0697L628.565 93.25ZM610.94 96.8125V94.8125C602.829 94.8125 596.159 93.6287 590.854 91.3499L590.065 93.1875L589.276 95.0251C595.221 97.5797 602.467 98.8125 610.94 98.8125V96.8125ZM590.065 93.1875L590.859 91.3521C585.613 89.0812 581.527 85.7013 578.544 81.2064L576.878 82.3125L575.211 83.4186C578.644 88.5904 583.35 92.4605 589.271 95.0229L590.065 93.1875ZM576.878 82.3125L578.555 81.223C575.6 76.6738 574.034 71.5358 573.877 65.7581L571.878 65.8125L569.878 65.8669C570.054 72.3392 571.822 78.2012 575.2 83.402L576.878 82.3125Z" fill="#0D1117" mask="url(#path-1-outside-1_2459_6)"/>
</svg>
